# AST/ASF file generated using VICON BodyLanguage
# -----------------------------------------------
:version 1.10
:name VICON
:units
  mass 1.0
  length 0.1
  angle deg
:documentation
   .ast/.asf automatically generated from VICON data using
   VICON BodyBuilder and BodyLanguage model FULLBODY5.MOD
:root
   order TX TY TZ RZ RY RX
   axis XYZ
   position 0 0 0  
   orientation 0 -0 0 
:bonedata
  begin
     id 1 
     name lhipjoint
     direction 0.961525 -0.229516 0.150972 
     length 0.502153 
     axis 0 -0 0  XYZ
  end
  begin
     id 2 
     name lfemur
     direction 0.173648 -0.984808 0  
     length 1.83052  
     axis 0 -0 10  XYZ
    dof rx ry rz
    limits (-180.0 180.0)
           (-180.0 180.0)
           (-180.0 180.0)
  end
  begin
     id 3 
     name ltibia
     direction 0.173629 -0.984811 0   
     length 1.50296   
     axis 0 -0 10   XYZ
    dof rx ry rz
    limits (-180.0 180.0)
           (-180.0 180.0)
           (-180.0 180.0)
  end
  begin
     id 4 
     name lfoot
     direction 7.59329e-012 -0.227408 0.9738   
     length 0.574743   
     axis -90 -1.73656e-015 10   XYZ
    dof rx ry rz
    limits (-180.0 180.0)
           (-180.0 180.0)
           (-180.0 180.0)
  end
  begin
     id 5 
     name ltoes
     direction 7.79885e-012 -4.41741e-011 1   
     length 0.28489   
     axis -90 -1.73656e-015 10   XYZ
    dof rx ry rz
    limits (-180.0 180.0)
           (-180.0 180.0)
           (-180.0 180.0)
  end
  begin
     id 6 
     name rhipjoint
     direction -0.970498 -0.201437 0.132502   
     length 0.572149  
     axis 0 -0 0  XYZ 
  end
  begin
     id 7 
     name rfemur
     direction -0.173648 -0.984808 0   
     length 1.71866   
     axis 0 -0 -10   XYZ
    dof rx ry rz
    limits (-180.0 180.0)
           (-180.0 180.0)
           (-180.0 180.0)
  end
  begin
     id 8 
     name rtibia
     direction -0.173624 -0.984812 0   
     length 1.42623   
     axis 0 -0 -10   XYZ
    dof rx ry rz
    limits (-180.0 180.0)
           (-180.0 180.0)
           (-180.0 180.0)
 end
 begin
     id 9 
     name rfoot
     direction -7.12931e-012 -0.404275 0.914637   
     length 0.524692  
     axis -90 1.73656e-015 -10   XYZ
    dof rx ry rz
    limits (-180.0 180.0)
           (-180.0 180.0)
           (-180.0 180.0)
  end
  begin
     id 10 
     name rtoes
     direction -7.79289e-012 -4.41454e-011 1   
     length 0.254983   
     axis -90 1.73656e-015 -10   XYZ
    dof rx ry rz
    limits (-180.0 180.0)
           (-180.0 180.0)
           (-180.0 180.0)
  end
  begin
     id 11 
     name lowerback
     direction -0.0214086 0.993738 0.109665   
     length 0.417614   
     axis 0 -0 0   XYZ
    dof rx ry rz
    limits (-180.0 180.0)
           (-180.0 180.0)
           (-180.0 180.0)
  end
  begin
     id 12 
     name upperback
     direction 8.15962e-005 0.99996 0.00893412   
     length 0.419234   
     axis 0 -0 0   XYZ
    dof rx ry rz
    limits (-180.0 180.0)
           (-180.0 180.0)
           (-180.0 180.0)
  end
  begin
     id 13 
     name thorax
     direction 0.00826031 0.999067 -0.0423848   
     length 0.424697   
     axis 0 -0 0   XYZ
    dof rx ry rz
    limits (-180.0 180.0)
           (-180.0 180.0)
           (-180.0 180.0)
  end
  begin
     id 14 
     name lowerneck
     direction -0.0196262 0.994272 -0.105058   
     length 0.355877   
     axis 0 -0 0   XYZ
    dof rx ry rz
    limits (-180.0 180.0)
           (-180.0 180.0)
           (-180.0 180.0)
  end
  begin
     id 15 
     name upperneck
     direction 0.000117372 0.999091 0.0426261   
     length 0.351054   
     axis 0 -0 0   XYZ
    dof rx ry rz
    limits (-180.0 180.0)
           (-180.0 180.0)
           (-180.0 180.0)
  end
  begin
     id 16
     name head
     direction 0.00157618 0.999651 0.0263619  
     length 0.374844  
     axis 0 -0 0   XYZ
    dof rx ry rz
    limits (-180.0 180.0)
           (-180.0 180.0)
           (-180.0 180.0)
  end
  begin
     id 17 
     name lshoulderjoint
     direction 0.981627 -0.190809 0  
     length 0.701763  
     axis 0 -0 -11   XYZ
    dof rx ry rz
    limits (-180.0 180.0)
           (-180.0 180.0)
           (-180.0 180.0)
  end
  begin
     id 18 
     name lhumerus
     direction 0.48481 -0.87462 -1.80676e-026   
     length 0.994704   
     axis -180 5.14477e-009 -151   XYZ
    dof rx ry rz
    limits (-180.0 180.0)
           (-180.0 180.0)
           (-180.0 180.0)
  end
  begin
     id 19
     name lradius
     direction 0.48481 -0.87462 -3.2569e-026   
     length 0.617638   
     axis -180 5.14477e-009 -151   XYZ
    dof rx ry rz
    limits (-180.0 180.0)
           (-180.0 180.0)
           (-180.0 180.0)
  end
  begin
     id 20
     name lwrist
     direction 0.48481 -0.87462 -6.73202e-026   
     length 0.308819   
     axis -180 5.14477e-009 -151   XYZ
    dof rx ry rz
    limits (-180.0 180.0)
           (-180.0 180.0)
           (-180.0 180.0)
  end
  begin
     id 21 
     name lhand
     direction 0.478366 -0.863761 -0.158376   
     length 0.291656   
     axis -180 5.14477e-009 -151   XYZ
    dof rx ry rz
    limits (-180.0 180.0)
           (-180.0 180.0)
           (-180.0 180.0)
  end
  begin
     id 22 
     name rshoulderjoint
     direction -0.981627 -0.190809 0   
     length 0.66654  
     axis 0 -0 11   XYZ 
    dof rx ry rz
    limits (-180.0 180.0)
           (-180.0 180.0)
           (-180.0 180.0)
  end
  begin
     id 23 
     name rhumerus
     direction -0.48481 -0.87462 1.77576e-026  
     length 1.15089   
     axis 180 5.14477e-009 151   XYZ
    dof rx ry rz
    limits (-180.0 180.0)
           (-180.0 180.0)
           (-180.0 180.0)
  end
  begin
     id 24 
     name rradius
     direction -0.48481 -0.87462 3.79421e-026   
     length 0.613887   
     axis 180 5.14477e-009 151   XYZ
    dof rx ry rz
    limits (-180.0 180.0)
           (-180.0 180.0)
           (-180.0 180.0)
  end
  begin
     id 25 
     name rwrist
     direction -0.48481 -0.87462 5.43623e-026   
     length 0.306944   
     axis 180 5.14477e-009 151   XYZ
    dof rx ry rz
    limits (-180.0 180.0)
           (-180.0 180.0)
           (-180.0 180.0)
  end
  begin
     id 26
     name rhand
     direction -0.479273 -0.864638 -0.150661   
     length 0.306429   
     axis 180 5.14477e-009 151   XYZ
    dof rx ry rz
    limits (-180.0 180.0)
           (-180.0 180.0)
           (-180.0 180.0)
  end
:hierarchy
  begin
    root lhipjoint rhipjoint lowerback 
    lhipjoint lfemur
    lfemur ltibia
    ltibia lfoot
    lfoot ltoes
    rhipjoint rfemur
    rfemur rtibia
    rtibia rfoot
    rfoot rtoes
    lowerback upperback
    upperback thorax
    thorax lowerneck lshoulderjoint rshoulderjoint
    lowerneck upperneck
    upperneck head
    lshoulderjoint lhumerus
    lhumerus lradius
    lradius lwrist
    lwrist lhand
    rshoulderjoint rhumerus
    rhumerus rradius
    rradius rwrist
    rwrist rhand
  end

:FULLY-SPECIFIED
:DEGREES
162
root 2.23845 3.55299 -0.413214 95.4288 -75.7572 90.8275
lowerback -13.5349 -1.09263 -3.48968
upperback -3.42979 -1.10961 -0.186131
thorax 4.0281 -0.638079 1.58489
lowerneck 12.8283 -0.229402 -4.18414
upperneck -7.62237 -0.665939 3.5117
head -4.34081 -0.417403 1.81139
rshoulderjoint 2.98178 -4.0903 -47.1395
rhumerus 49.2696 -77.9785 -66.6793
rradius 44.0362 4.77083e-014 -8.07066e-014
rwrist -4.36583e-013 8.71987 -1.15839e-013
rhand 32.1191 -8.51457 11.1837
lshoulderjoint 6.76316 11.8066 41.0964
lhumerus 125.392 58.4894 139.673
lradius 38.4822 -1.30403e-013 -4.25399e-014
lwrist -4.38078e-013 9.89468 1.68693e-013
lhand 20.305 -9.21705 19.7162
rfemur -22.8246 0.637439 13.1435
rtibia 1.59028e-015 9.93923e-016 -3.18055e-015
rfoot 4.68983 14.0788 -7.42121
rtoes -1.35174e-014 2.5842e-015 2.8625e-014
lfemur -13.4977 -8.94713 -19.5276
ltibia 44.02 -1.59028e-015 3.97569e-015
lfoot -11.1236 3.71336 7.77008
ltoes -1.20861e-013 -6.11263e-015 2.22639e-014
163
root 2.26848 3.54701 -0.409366 95.1535 -75.7252 90.663
lowerback -13.3817 -1.09317 -3.37836
upperback -3.37825 -1.12822 -0.148508
thorax 3.99891 -0.644898 1.56025
lowerneck 12.7947 -0.231765 -4.16004
upperneck -7.6817 -0.668111 3.45772
head -4.3538 -0.415311 1.7911
rshoulderjoint 2.99401 -4.10702 -47.1402
rhumerus 48.5983 -77.7467 -66.0145
rradius 44.0955 -5.64548e-014 4.05521e-014
rwrist 2.10572e-013 8.60405 1.08566e-013
rhand 31.6198 -8.43961 11.2523
lshoulderjoint 6.73699 11.7711 41.0731
lhumerus 125.436 58.26 139.789
lradius 38.4597 -2.41722e-013 -9.85972e-014
lwrist -6.57933e-014 9.94935 1.59841e-013
lhand 20.1935 -9.4236 19.8281
rfemur -23.3691 0.726031 13.1365
rtibia 3.49861e-014 2.18663e-015 -7.95139e-016
rfoot 4.93784 13.8429 -7.56728
rtoes -1.31198e-013 7.53891e-014 6.36111e-015
lfemur -13.1771 -9.32824 -19.5319
ltibia 42.4325 1.59028e-015 -1.51076e-014
lfoot -11.486 4.46079 8.08902
ltoes 2.8625e-014 7.46436e-014 -3.18055e-015
164
root 2.29929 3.54083 -0.40522 94.8636 -75.7201 90.461
lowerback -13.1628 -1.09613 -3.29973
upperback -3.3225 -1.14734 -0.104603
thorax 3.93884 -0.651514 1.56158
lowerneck 12.7488 -0.236285 -4.13877
upperneck -7.73435 -0.673595 3.40166
head -4.36261 -0.414571 1.77074
rshoulderjoint 3.02128 -4.14495 -47.1376
rhumerus 48.1689 -77.5057 -65.5331
rradius 44.1474 1.78906e-013 -1.90833e-014
rwrist -4.9535e-013 8.54174 -1.97798e-013
rhand 31.136 -8.38172 11.3549
lshoulderjoint 6.70334 11.7293 41.0345
lhumerus 125.213 58.2624 139.582
lradius 38.4353 -1.27222e-014 -4.81059e-014
lwrist -1.66109e-013 9.97132 -3.95594e-014
lhand 20.2139 -9.34833 19.836
rfemur -23.8963 0.797648 13.0992
rtibia -7.63333e-014 6.16232e-015 -6.36111e-015
rfoot 5.19538 13.557 -7.72142
rtoes 2.32976e-013 -8.29429e-014 -2.22639e-014
lfemur -12.7788 -9.66623 -19.5863
ltibia 40.8228 -1.27222e-014 2.46493e-014
lfoot -11.936 4.12495 8.77023
ltoes -1.87653e-013 -1.06549e-013 2.36554e-014
165
root 2.33077 3.53437 -0.400762 94.6391 -75.7144 90.3856
lowerback -12.92 -1.08181 -3.12841
upperback -3.2741 -1.15651 -0.0610506
thorax 3.85576 -0.652263 1.51237
lowerneck 12.6929 -0.245468 -4.10838
upperneck -7.76167 -0.682689 3.35685
head -4.36183 -0.416644 1.75243
rshoulderjoint 3.02806 -4.15637 -47.124
rhumerus 47.4692 -77.2602 -64.7796
rradius 44.1897 1.84472e-013 1.01778e-013
rwrist -2.30831e-013 8.56795 -7.92051e-014
rhand 30.7193 -8.46137 11.4988
lshoulderjoint 6.68154 11.6865 41.0424
lhumerus 125.243 58.0422 139.678
lradius 38.4028 8.90555e-014 5.56597e-015
lwrist 2.69157e-013 9.98618 -1.51786e-013
lhand 20.1572 -9.52656 19.9538
rfemur -24.433 0.89615 13.11
rtibia 1.59028e-015 -9.93923e-015 3.97569e-015
rfoot 5.4671 13.2226 -7.90841
rtoes 5.96354e-015 -4.19436e-014 -1.43125e-014
lfemur -12.3474 -10.0027 -19.587
ltibia 39.2663 -6.36111e-015 1.59028e-015
lfoot -13.6929 3.39752 9.15056
ltoes -2.54444e-014 -1.56046e-014 -1.78906e-015
166
root 2.36298 3.52767 -0.395971 94.5341 -75.676 90.3694
lowerback -12.6776 -1.06725 -3.01828
upperback -3.23692 -1.15741 -0.0176693
thorax 3.76154 -0.649429 1.49893
lowerneck 12.6626 -0.246006 -4.09866
upperneck -7.82574 -0.68668 3.28846
head -4.37677 -0.414131 1.73018
rshoulderjoint 3.05505 -4.19361 -47.1236
rhumerus 47.8781 -77.0825 -65.1376
rradius 44.2509 -6.20208e-014 -2.62396e-014
rwrist 5.57817e-013 8.4394 -3.81825e-014
rhand 30.5062 -8.16959 11.501
lshoulderjoint 6.64809 11.6351 41.0247
lhumerus 125.023 58.0715 139.466
lradius 38.3792 4.19833e-013 2.54047e-013
lwrist 1.52809e-013 10.016 -1.50992e-013
lhand 20.2171 -9.48021 19.9575
rfemur -25.0162 1.00885 13.0477
rtibia 3.33958e-014 -2.98177e-016 1.03368e-014
rfoot 5.71442 12.9401 -8.09323
rtoes -1.20464e-013 8.27938e-014 -2.38542e-014
lfemur -11.9807 -10.3051 -19.6414
ltibia 37.8267 0 -1.74931e-014
lfoot -15.425 2.81602 9.47923
ltoes 1.90833e-014 6.46796e-014 1.59028e-015
167
root 2.39566 3.52061 -0.391261 94.4845 -75.6218 90.4838
lowerback -12.4286 -1.0476 -2.85317
upperback -3.22235 -1.16068 0.0596896
thorax 3.63972 -0.647301 1.48987
lowerneck 12.6493 -0.255573 -4.06242
upperneck -7.85181 -0.703502 3.18251
head -4.38253 -0.416726 1.69275
rshoulderjoint 3.05078 -4.18182 -47.1621
rhumerus 46.6941 -76.7867 -63.8898
rradius 44.3161 1.34378e-013 1.98785e-014
rwrist -6.21524e-013 8.5648 -6.35244e-014
rhand 30.2841 -8.45265 11.6327
lshoulderjoint 6.60142 11.5557 41.0159
lhumerus 124.787 58.2335 139.212
lradius 38.3614 -2.76708e-013 -2.00773e-013
lwrist -1.80014e-013 10.1138 5.65383e-014
lhand 20.2951 -9.44925 19.9004
rfemur -25.6202 1.15437 13.0566
rtibia -4.45278e-014 7.55382e-015 -1.27222e-014
rfoot 5.92348 12.6605 -8.30176
rtoes 1.04958e-013 -5.47652e-014 4.45278e-014
lfemur -11.6783 -10.5748 -19.6301
ltibia 36.5103 9.54166e-015 2.54444e-014
lfoot -17.0089 1.95938 10.0542
ltoes 6.36111e-015 -7.94455e-014 3.89618e-014
